<svg xmlns="http://www.w3.org/2000/svg" width="400" height="340"><linearGradient id="grad1" x1="0%" y1="0%" x2="100%" y2="0%"><stop offset="0%" style="stop-color:#FFA500;stop-opacity:1" /><stop offset="100%" style="stop-color:#FF6347;stop-opacity:1" /></linearGradient><path fill="url(#grad1)" d="M316.67862925071853,275.9892637673365C309.6893414681779,295.1116735912529,305.1313995234914,328.8805246365801,289.19547886920117,334.7344589434983C273.25955821491095,340.58839325041646,242.4791577846598,308.5693426777532,221.0631053249773,311.1128696088457C199.6470528652948,313.6563965399382,174.66375474280161,354.4430603950622,160.6991641111061,349.9956205300532C146.7345734794106,345.5481806650442,143.59484351695298,302.51134327567974,137.27556153480435,284.4282304187915C130.95627955265573,266.34511756190324,131.51617973035002,257.37489490844706,122.7834722182144,241.49694338872365C114.05076470607878,225.61899186900027,85.08545647354272,205.80381951665132,84.87931646199063,189.16052130045117C84.67317645043853,172.51722308425101,107.56190185352413,154.60855911966223,121.54663214890184,141.6371540915227C135.53136244427955,128.66574906338315,152.0900422861706,114.37601505354564,168.78769823425685,111.33209113161388C185.48535418234312,108.28816720968211,204.24653546679954,120.64412931238111,221.73256783741945,123.37361055993212C239.21860020803936,126.10309180748312,256.72690172636345,121.54108023677782,273.7038924579763,127.7089786169199C290.6808831895891,133.87687699706197,314.0232933760182,144.99916394360451,323.5945122270964,160.38100084078454C333.1657310781746,175.76283773796456,332.2838527271749,200.731956178908,331.1312055644453,220C329.97855840171565,239.268043821092,323.6679170332592,256.86685394342015,316.67862925071853,275.9892637673365" stroke="none" stroke-width="3"/></svg>